<?xml version="1.0" encoding="iso-8859-1"?>
<!-- Generator: Adobe Illustrator 19.0.0, SVG Export Plug-In . SVG Version: 6.00 Build 0)  -->
<svg version="1.1" id="Capa_1" xmlns="http://www.w3.org/2000/svg" xmlns:xlink="http://www.w3.org/1999/xlink" x="0px" y="0px"
	 viewBox="0 0 512 512" style="enable-background:new 0 0 512 512;" xml:space="preserve">
<path style="fill:#6F707E;" d="M407.273,512H104.727c-12.8,0-23.273-10.473-23.273-23.273V23.273C81.455,10.473,91.927,0,104.727,0
	h302.545c12.8,0,23.273,10.473,23.273,23.273v465.455C430.545,501.527,420.073,512,407.273,512z"/>
<path style="fill:#595A66;" d="M407.273,0L407.273,0v488.727H81.455l0,0c0,12.8,10.473,23.273,23.273,23.273h302.545
	c12.8,0,23.273-10.473,23.273-23.273V23.273C430.545,10.473,420.073,0,407.273,0z"/>
<path style="fill:#494A52;" d="M430.545,209.455H81.455V23.273C81.455,10.473,91.927,0,104.727,0h302.545
	c12.8,0,23.273,10.473,23.273,23.273V209.455z"/>
<rect x="116.364" y="34.909" style="fill:#90C962;" width="279.273" height="139.636"/>
<path style="fill:#595A66;" d="M372.364,477.091L372.364,477.091c-12.8,0-23.273-10.473-23.273-23.273v-81.455
	c0-12.8,10.473-23.273,23.273-23.273l0,0c12.8,0,23.273,10.473,23.273,23.273v81.455
	C395.636,466.618,385.164,477.091,372.364,477.091z"/>
<path style="fill:#F04B4D;" d="M360.727,465.455L360.727,465.455c-12.8,0-23.273-10.473-23.273-23.273v-81.455
	c0-12.8,10.473-23.273,23.273-23.273l0,0c12.8,0,23.273,10.473,23.273,23.273v81.455C384,454.982,373.527,465.455,360.727,465.455z"
	/>
<path style="fill:#DE333F;" d="M372.364,340.945v89.6c0,12.8-10.473,23.273-23.273,23.273c-3.491,0-6.982-1.164-9.309-2.327
	c3.491,8.145,11.636,13.964,20.945,13.964c12.8,0,23.273-10.473,23.273-23.273v-81.455C384,352.582,379.345,344.436,372.364,340.945
	z"/>
<g>
	<path style="fill:#595A66;" d="M162.909,314.182L162.909,314.182c-12.8,0-23.273-10.473-23.273-23.273l0,0
		c0-12.8,10.473-23.273,23.273-23.273l0,0c12.8,0,23.273,10.473,23.273,23.273l0,0C186.182,303.709,175.709,314.182,162.909,314.182
		z"/>
	<path style="fill:#595A66;" d="M232.727,314.182L232.727,314.182c-12.8,0-23.273-10.473-23.273-23.273l0,0
		c0-12.8,10.473-23.273,23.273-23.273l0,0c12.8,0,23.273,10.473,23.273,23.273l0,0C256,303.709,245.527,314.182,232.727,314.182z"/>
	<path style="fill:#595A66;" d="M302.545,314.182L302.545,314.182c-12.8,0-23.273-10.473-23.273-23.273l0,0
		c0-12.8,10.473-23.273,23.273-23.273l0,0c12.8,0,23.273,10.473,23.273,23.273l0,0C325.818,303.709,315.345,314.182,302.545,314.182
		z"/>
	<path style="fill:#595A66;" d="M372.364,314.182L372.364,314.182c-12.8,0-23.273-10.473-23.273-23.273l0,0
		c0-12.8,10.473-23.273,23.273-23.273l0,0c12.8,0,23.273,10.473,23.273,23.273l0,0C395.636,303.709,385.164,314.182,372.364,314.182
		z"/>
	<path style="fill:#595A66;" d="M162.909,395.636L162.909,395.636c-12.8,0-23.273-10.473-23.273-23.273l0,0
		c0-12.8,10.473-23.273,23.273-23.273l0,0c12.8,0,23.273,10.473,23.273,23.273l0,0C186.182,385.164,175.709,395.636,162.909,395.636
		z"/>
	<path style="fill:#595A66;" d="M232.727,395.636L232.727,395.636c-12.8,0-23.273-10.473-23.273-23.273l0,0
		c0-12.8,10.473-23.273,23.273-23.273l0,0c12.8,0,23.273,10.473,23.273,23.273l0,0C256,385.164,245.527,395.636,232.727,395.636z"/>
	<path style="fill:#595A66;" d="M302.545,395.636L302.545,395.636c-12.8,0-23.273-10.473-23.273-23.273l0,0
		c0-12.8,10.473-23.273,23.273-23.273l0,0c12.8,0,23.273,10.473,23.273,23.273l0,0C325.818,385.164,315.345,395.636,302.545,395.636
		z"/>
	<path style="fill:#595A66;" d="M162.909,477.091L162.909,477.091c-12.8,0-23.273-10.473-23.273-23.273l0,0
		c0-12.8,10.473-23.273,23.273-23.273l0,0c12.8,0,23.273,10.473,23.273,23.273l0,0C186.182,466.618,175.709,477.091,162.909,477.091
		z"/>
	<path style="fill:#595A66;" d="M232.727,477.091L232.727,477.091c-12.8,0-23.273-10.473-23.273-23.273l0,0
		c0-12.8,10.473-23.273,23.273-23.273l0,0c12.8,0,23.273,10.473,23.273,23.273l0,0C256,466.618,245.527,477.091,232.727,477.091z"/>
	<path style="fill:#595A66;" d="M302.545,477.091L302.545,477.091c-12.8,0-23.273-10.473-23.273-23.273l0,0
		c0-12.8,10.473-23.273,23.273-23.273l0,0c12.8,0,23.273,10.473,23.273,23.273l0,0C325.818,466.618,315.345,477.091,302.545,477.091
		z"/>
</g>
<g>
	<path style="fill:#ECEFF9;" d="M151.273,302.545L151.273,302.545c-12.8,0-23.273-10.473-23.273-23.273l0,0
		c0-12.8,10.473-23.273,23.273-23.273l0,0c12.8,0,23.273,10.473,23.273,23.273l0,0C174.545,292.073,164.073,302.545,151.273,302.545
		z"/>
	<path style="fill:#ECEFF9;" d="M221.091,302.545L221.091,302.545c-12.8,0-23.273-10.473-23.273-23.273l0,0
		c0-12.8,10.473-23.273,23.273-23.273l0,0c12.8,0,23.273,10.473,23.273,23.273l0,0C244.364,292.073,233.891,302.545,221.091,302.545
		z"/>
	<path style="fill:#ECEFF9;" d="M290.909,302.545L290.909,302.545c-12.8,0-23.273-10.473-23.273-23.273l0,0
		c0-12.8,10.473-23.273,23.273-23.273l0,0c12.8,0,23.273,10.473,23.273,23.273l0,0C314.182,292.073,303.709,302.545,290.909,302.545
		z"/>
</g>
<path style="fill:#F6B545;" d="M360.727,302.545L360.727,302.545c-12.8,0-23.273-10.473-23.273-23.273l0,0
	c0-12.8,10.473-23.273,23.273-23.273l0,0c12.8,0,23.273,10.473,23.273,23.273l0,0C384,292.073,373.527,302.545,360.727,302.545z"/>
<g>
	<path style="fill:#ECEFF9;" d="M151.273,384L151.273,384c-12.8,0-23.273-10.473-23.273-23.273l0,0
		c0-12.8,10.473-23.273,23.273-23.273l0,0c12.8,0,23.273,10.473,23.273,23.273l0,0C174.545,373.527,164.073,384,151.273,384z"/>
	<path style="fill:#ECEFF9;" d="M221.091,384L221.091,384c-12.8,0-23.273-10.473-23.273-23.273l0,0
		c0-12.8,10.473-23.273,23.273-23.273l0,0c12.8,0,23.273,10.473,23.273,23.273l0,0C244.364,373.527,233.891,384,221.091,384z"/>
	<path style="fill:#ECEFF9;" d="M290.909,384L290.909,384c-12.8,0-23.273-10.473-23.273-23.273l0,0
		c0-12.8,10.473-23.273,23.273-23.273l0,0c12.8,0,23.273,10.473,23.273,23.273l0,0C314.182,373.527,303.709,384,290.909,384z"/>
	<path style="fill:#ECEFF9;" d="M151.273,465.455L151.273,465.455c-12.8,0-23.273-10.473-23.273-23.273l0,0
		c0-12.8,10.473-23.273,23.273-23.273l0,0c12.8,0,23.273,10.473,23.273,23.273l0,0C174.545,454.982,164.073,465.455,151.273,465.455
		z"/>
	<path style="fill:#ECEFF9;" d="M221.091,465.455L221.091,465.455c-12.8,0-23.273-10.473-23.273-23.273l0,0
		c0-12.8,10.473-23.273,23.273-23.273l0,0c12.8,0,23.273,10.473,23.273,23.273l0,0C244.364,454.982,233.891,465.455,221.091,465.455
		z"/>
	<path style="fill:#ECEFF9;" d="M290.909,465.455L290.909,465.455c-12.8,0-23.273-10.473-23.273-23.273l0,0
		c0-12.8,10.473-23.273,23.273-23.273l0,0c12.8,0,23.273,10.473,23.273,23.273l0,0C314.182,454.982,303.709,465.455,290.909,465.455
		z"/>
</g>
<polygon style="fill:#71B956;" points="395.636,34.909 116.364,34.909 116.364,174.545 128,174.545 128,46.545 395.636,46.545 "/>
<polygon style="fill:#35363E;" points="407.273,23.273 104.727,23.273 104.727,186.182 116.364,174.545 116.364,34.909 
	395.636,34.909 "/>
<polygon style="fill:#595A66;" points="104.727,186.182 407.273,186.182 407.273,23.273 395.636,34.909 395.636,174.545 
	116.364,174.545 "/>
<g>
	<path style="fill:#598E42;" d="M290.909,75.636v58.182c0,3.491-2.327,5.818-5.818,5.818l0,0c-3.491,0-5.818-2.327-5.818-5.818
		V75.636c0-3.491,2.327-5.818,5.818-5.818l0,0C288.582,69.818,290.909,72.145,290.909,75.636z"/>
	<path style="fill:#598E42;" d="M314.182,75.636v58.182c0,3.491-2.327,5.818-5.818,5.818l0,0c-3.491,0-5.818-2.327-5.818-5.818
		V75.636c0-3.491,2.327-5.818,5.818-5.818l0,0C311.855,69.818,314.182,72.145,314.182,75.636z"/>
	<path style="fill:#598E42;" d="M349.091,81.455c6.982,0,11.636,4.655,11.636,11.636v23.273c0,6.982-4.655,11.636-11.636,11.636
		c-6.982,0-11.636-4.655-11.636-11.636V93.091C337.455,86.109,342.109,81.455,349.091,81.455 M349.091,69.818
		c-12.8,0-23.273,10.473-23.273,23.273v23.273c0,12.8,10.473,23.273,23.273,23.273c12.8,0,23.273-10.473,23.273-23.273V93.091
		C372.364,80.291,361.891,69.818,349.091,69.818L349.091,69.818z"/>
</g>
<rect x="81.455" y="209.455" style="fill:#7C7D87;" width="349.091" height="11.636"/>
<g>
	<rect x="81.455" y="197.818" style="fill:#35363E;" width="349.091" height="11.636"/>
	<path style="fill:#35363E;" d="M407.273,23.273v174.545h23.273V23.273l0,0C430.545,8.145,407.273,9.309,407.273,23.273z"/>
</g>
<rect x="407.273" y="209.455" style="fill:#6F707E;" width="23.273" height="11.636"/>
<g>
	<path style="fill:#C9D5E3;" d="M300.218,258.327c1.164,3.491,2.327,5.818,2.327,9.309c0,12.8-10.473,23.273-23.273,23.273
		c-3.491,0-6.982-1.164-9.309-2.327c3.491,8.145,11.636,13.964,20.945,13.964c12.8,0,23.273-10.473,23.273-23.273
		C314.182,269.964,308.364,261.818,300.218,258.327z"/>
	<path style="fill:#C9D5E3;" d="M230.4,258.327c1.164,3.491,2.327,5.818,2.327,9.309c0,12.8-10.473,23.273-23.273,23.273
		c-3.491,0-6.982-1.164-9.309-2.327c3.491,8.145,11.636,13.964,20.945,13.964c12.8,0,23.273-10.473,23.273-23.273
		C244.364,269.964,238.545,261.818,230.4,258.327z"/>
	<path style="fill:#C9D5E3;" d="M300.218,339.782c1.164,3.491,2.327,5.818,2.327,9.309c0,12.8-10.473,23.273-23.273,23.273
		c-3.491,0-6.982-1.164-9.309-2.327C273.455,378.182,281.6,384,290.909,384c12.8,0,23.273-10.473,23.273-23.273
		C314.182,351.418,308.364,343.273,300.218,339.782z"/>
	<path style="fill:#C9D5E3;" d="M230.4,339.782c1.164,3.491,2.327,5.818,2.327,9.309c0,12.8-10.473,23.273-23.273,23.273
		c-3.491,0-6.982-1.164-9.309-2.327c3.491,8.145,11.636,13.964,20.945,13.964c12.8,0,23.273-10.473,23.273-23.273
		C244.364,351.418,238.545,343.273,230.4,339.782z"/>
	<path style="fill:#C9D5E3;" d="M300.218,421.236c1.164,3.491,2.327,5.818,2.327,9.309c0,12.8-10.473,23.273-23.273,23.273
		c-3.491,0-6.982-1.164-9.309-2.327c3.491,8.145,11.636,13.964,20.945,13.964c12.8,0,23.273-10.473,23.273-23.273
		C314.182,432.873,308.364,424.727,300.218,421.236z"/>
	<path style="fill:#C9D5E3;" d="M230.4,421.236c1.164,3.491,2.327,5.818,2.327,9.309c0,12.8-10.473,23.273-23.273,23.273
		c-3.491,0-6.982-1.164-9.309-2.327c3.491,8.145,11.636,13.964,20.945,13.964c12.8,0,23.273-10.473,23.273-23.273
		C244.364,432.873,238.545,424.727,230.4,421.236z"/>
	<path style="fill:#C9D5E3;" d="M160.582,258.327c1.164,3.491,2.327,5.818,2.327,9.309c0,12.8-10.473,23.273-23.273,23.273
		c-3.491,0-6.982-1.164-9.309-2.327c3.491,8.145,11.636,13.964,20.945,13.964c12.8,0,23.273-10.473,23.273-23.273
		C174.545,269.964,168.727,261.818,160.582,258.327z"/>
</g>
<path style="fill:#F19920;" d="M370.036,258.327c1.164,3.491,2.327,5.818,2.327,9.309c0,12.8-10.473,23.273-23.273,23.273
	c-3.491,0-6.982-1.164-9.309-2.327c3.491,8.145,11.636,13.964,20.945,13.964c12.8,0,23.273-10.473,23.273-23.273
	C384,269.964,378.182,261.818,370.036,258.327z"/>
<g>
	<path style="fill:#C9D5E3;" d="M160.582,339.782c1.164,3.491,2.327,5.818,2.327,9.309c0,12.8-10.473,23.273-23.273,23.273
		c-3.491,0-6.982-1.164-9.309-2.327c3.491,8.145,11.636,13.964,20.945,13.964c12.8,0,23.273-10.473,23.273-23.273
		C174.545,351.418,168.727,343.273,160.582,339.782z"/>
	<path style="fill:#C9D5E3;" d="M160.582,421.236c1.164,3.491,2.327,5.818,2.327,9.309c0,12.8-10.473,23.273-23.273,23.273
		c-3.491,0-6.982-1.164-9.309-2.327c3.491,8.145,11.636,13.964,20.945,13.964c12.8,0,23.273-10.473,23.273-23.273
		C174.545,432.873,168.727,424.727,160.582,421.236z"/>
</g>
<g>
	<path style="fill:#595A66;" d="M87.273,128L87.273,128c-3.491,0-5.818-2.327-5.818-5.818V29.091c0-3.491,2.327-5.818,5.818-5.818
		l0,0c3.491,0,5.818,2.327,5.818,5.818v93.091C93.091,125.673,90.764,128,87.273,128z"/>
	<path style="fill:#595A66;" d="M87.273,174.545L87.273,174.545c-3.491,0-5.818-2.327-5.818-5.818v-23.273
		c0-3.491,2.327-5.818,5.818-5.818l0,0c3.491,0,5.818,2.327,5.818,5.818v23.273C93.091,172.218,90.764,174.545,87.273,174.545z"/>
</g>
<g>
	<path style="fill:#7C7D87;" d="M87.273,337.455L87.273,337.455c-3.491,0-5.818-2.327-5.818-5.818v-93.091
		c0-3.491,2.327-5.818,5.818-5.818l0,0c3.491,0,5.818,2.327,5.818,5.818v93.091C93.091,335.127,90.764,337.455,87.273,337.455z"/>
	<path style="fill:#7C7D87;" d="M87.273,384L87.273,384c-3.491,0-5.818-2.327-5.818-5.818v-23.273c0-3.491,2.327-5.818,5.818-5.818
		l0,0c3.491,0,5.818,2.327,5.818,5.818v23.273C93.091,381.673,90.764,384,87.273,384z"/>
	<path style="fill:#7C7D87;" d="M87.273,407.273L87.273,407.273c-3.491,0-5.818-2.327-5.818-5.818l0,0
		c0-3.491,2.327-5.818,5.818-5.818l0,0c3.491,0,5.818,2.327,5.818,5.818l0,0C93.091,404.945,90.764,407.273,87.273,407.273z"/>
</g>
<polygon style="fill:#ADD587;" points="174.545,174.545 128,174.545 209.455,34.909 256,34.909 "/>
<polygon style="fill:#90C962;" points="249.018,46.545 256,34.909 209.455,34.909 202.473,46.545 "/>
<polygon style="fill:#ADD587;" points="209.455,174.545 186.182,174.545 267.636,34.909 290.909,34.909 "/>
<polygon style="fill:#90C962;" points="283.927,46.545 290.909,34.909 267.636,34.909 260.655,46.545 "/>
<g>
</g>
<g>
</g>
<g>
</g>
<g>
</g>
<g>
</g>
<g>
</g>
<g>
</g>
<g>
</g>
<g>
</g>
<g>
</g>
<g>
</g>
<g>
</g>
<g>
</g>
<g>
</g>
<g>
</g>
</svg>
