<?xml version="1.0"?>
<svg xmlns="http://www.w3.org/2000/svg" xmlns:xlink="http://www.w3.org/1999/xlink" version="1.1" id="Layer_1" x="0px" y="0px" viewBox="0 0 512 512" style="enable-background:new 0 0 512 512;" xml:space="preserve" width="512px" height="512px" class=""><g><g>
	<path style="fill:#CCCCCC" d="M320.086,135.626c-0.033-17.624-14.48-32.017-32.104-31.984l-160.219,0.301   c-17.624,0.033-32.017,14.48-31.984,32.104l0.03,16.023l224.307-0.422L320.086,135.626z" data-original="#EFF2FA" class="" data-old_color="#cccccc"/>
	<path style="fill:#CCCCCC" d="M96.382,456.486l0.03,16.02c0.033,17.624,14.48,32.017,32.104,31.984l160.219-0.301   c17.624-0.033,32.017-14.48,31.984-32.104l-0.03-16.021L96.382,456.486z" data-original="#EFF2FA" class="" data-old_color="#cccccc"/>
</g><rect x="96.106" y="151.854" transform="matrix(-1 0.0019 -0.0019 -1 417.0959 607.7293)" style="fill:#EEEEEE" width="224.307" height="304.417" data-original="#C3E678" class="active-path" data-old_color="#E0E0E0"/><circle style="fill:#135AC6" cx="208.253" cy="293.051" r="109.149" data-original="#A5D76E" class="" data-old_color="#135ac6"/><path style="fill:#F0C087;" d="M208.114,231.967c-17.697,0.033-32.017,14.407-31.984,32.104l0.015,8.011  c0.033,17.697,14.407,32.017,32.104,31.984c17.697-0.033,32.017-14.407,31.984-32.104l-0.015-8.011  C240.185,246.254,225.811,231.934,208.114,231.967z" data-original="#F0C087" class=""/><path style="fill:#CCCCCC" d="M240.395,320.29l-6.799,0.013c-5.841,9.532-14.935,15.788-25.288,15.807  c-10.351,0.019-19.47-6.201-25.347-15.711l-6.799,0.013c-14.197,0.027-23.935,14.065-23.917,23.816l0.033,17.352  c0.007,3.675,3.019,6.676,6.694,6.669l98.824-0.185c3.671-0.007,6.642-2.989,6.635-6.66l-0.033-17.385  C264.383,334.265,254.594,320.263,240.395,320.29z" data-original="#EFF2FA" class="" data-old_color="#cccccc"/><path d="M288.044,64.088c-0.043,0-0.093,0-0.137,0c-4.148,0.008-7.504,3.377-7.496,7.524c0.008,4.143,3.369,7.496,7.51,7.496  c0.005,0,0.01,0,0.015,0c31.228-0.063,56.624,25.275,56.683,56.471c0.008,4.143,3.369,7.496,7.51,7.496c0.005,0,0.01,0,0.015,0  c4.148-0.008,7.504-3.377,7.496-7.524C359.566,96.116,327.464,64.088,288.044,64.088z" data-original="#000000" class="" style="fill:#000000" data-old_color="#135AC6"/><path d="M288.045,32.044c-0.063,0-0.135,0-0.198,0c-4.148,0.008-7.504,3.377-7.496,7.524c0.008,4.143,3.369,7.496,7.51,7.496  c0.072,0.001,0.124,0,0.186,0c23.607,0,45.813,9.173,62.543,25.839c16.77,16.707,26.03,38.944,26.075,62.616  c0.008,4.143,3.369,7.496,7.51,7.496c0.005,0,0.01,0,0.015,0c4.148-0.008,7.504-3.377,7.496-7.524  C391.577,78.405,345.107,32.044,288.045,32.044z" data-original="#000000" class="" style="fill:#000000" data-old_color="#135AC6"/><path d="M287.788,0c-4.148,0.008-7.504,3.377-7.496,7.524c0.008,4.143,3.369,7.496,7.51,7.496c0.005,0,0.01,0,0.015,0  c32.253-0.079,62.556,12.434,85.389,35.182s35.441,53.025,35.503,85.257c0.008,4.143,3.369,7.496,7.51,7.496c0.005,0,0.01,0,0.015,0  c4.148-0.008,7.504-3.377,7.496-7.524C423.588,60.614,362.582-0.129,287.788,0z" data-original="#000000" class="" style="fill:#000000" data-old_color="#135AC6"/><path d="M327.627,151.634c0-0.001,0-0.002,0-0.004l-0.03-16.018c-0.041-21.77-17.784-39.48-39.628-39.48l-160.219,0.301  c-10.53,0.02-20.445,4.163-27.919,11.665c-7.474,7.502-11.58,17.434-11.56,27.963l0.632,336.459  c0.041,21.769,17.784,39.48,39.554,39.48c0.005,0,0.07,0,0.075,0l160.218-0.301c21.81-0.041,39.52-17.818,39.48-39.628  l-0.603-320.434C327.627,151.636,327.627,151.635,327.627,151.634z M103.335,159.565l209.286-0.394l0.544,289.396l-209.286,0.394  L103.335,159.565z M110.471,118.7c4.642-4.66,10.789-7.234,17.307-7.246l160.266-0.301c13.502,0,24.508,10.985,24.533,24.487  l0.016,8.512l-209.286,0.394l-0.016-8.512C103.278,129.515,105.828,123.359,110.471,118.7z M288.721,496.678l-160.219,0.301  l-0.047,7.51v-7.51c-13.501,0-24.508-10.985-24.534-24.487l-0.016-8.512l209.286-0.394l0.016,8.512  C313.234,485.627,302.249,496.653,288.721,496.678z" data-original="#000000" class="" style="fill:#000000" data-old_color="#135AC6"/><path d="M191.896,135.366c0.005,0,0.01,0,0.015,0l32.044-0.06c4.148-0.008,7.504-3.377,7.496-7.524  c-0.008-4.143-3.369-7.496-7.51-7.496c-0.005,0-0.01,0-0.015,0l-32.044,0.06c-4.148,0.008-7.504,3.377-7.496,7.524  C184.394,132.013,187.755,135.366,191.896,135.366z" data-original="#000000" class="" style="fill:#000000" data-old_color="#135AC6"/><path d="M232.614,472.752c-0.005,0-0.01,0-0.015,0l-48.066,0.09c-4.148,0.008-7.504,3.377-7.496,7.524  c0.008,4.144,3.369,7.496,7.51,7.496c0.005,0,0.01,0,0.015,0l48.066-0.09c4.148-0.008,7.504-3.377,7.496-7.524  C240.116,476.104,236.755,472.752,232.614,472.752z" data-original="#000000" class="" style="fill:#000000" data-old_color="#135AC6"/><path d="M167.864,135.41c1.973,0,3.905-0.801,5.307-2.203c1.402-1.392,2.203-3.335,2.203-5.307s-0.801-3.905-2.203-5.307  c-1.392-1.402-3.335-2.203-5.307-2.203s-3.915,0.801-5.317,2.203c-1.392,1.392-2.193,3.335-2.193,5.307  c0,1.983,0.801,3.915,2.193,5.307C163.95,134.609,165.892,135.41,167.864,135.41z" data-original="#000000" class="" style="fill:#000000" data-old_color="#135AC6"/><path d="M208.187,311.576c0.005,0,0.071,0,0.076,0c10.565-0.02,20.49-4.153,27.947-11.638c7.456-7.485,11.553-17.426,11.533-27.99  l-0.015-8.011c-0.041-21.769-17.784-39.48-39.628-39.48c-10.565,0.02-20.49,4.153-27.947,11.638  c-7.456,7.485-11.552,17.426-11.532,27.99l0.015,8.011C168.676,293.866,186.419,311.576,208.187,311.576z M190.793,246.696  c4.625-4.642,10.781-7.206,17.382-7.218c13.501,0,24.507,10.985,24.533,24.487l0.015,8.011c0.012,6.553-2.527,12.718-7.153,17.361  c-4.625,4.642-10.782,7.206-17.335,7.218l-0.047,7.51v-7.51c-13.501,0-24.507-10.985-24.533-24.486l-0.015-8.012  C183.628,257.504,186.169,251.339,190.793,246.696z" data-original="#000000" class="" style="fill:#000000" data-old_color="#135AC6"/><path d="M271.911,344.002c-0.027-14.438-13.782-31.222-31.53-31.222l-6.799,0.013c-2.608,0.005-5.027,1.363-6.39,3.587  c-4.75,7.753-11.638,12.207-18.932,12.221c-7.246,0-14.138-4.428-18.91-12.15c-1.369-2.215-3.786-3.562-6.389-3.562  c-0.004,0-0.009,0-0.014,0l-6.799,0.013c-8.593,0.016-16.721,3.845-22.887,10.782c-5.35,6.018-8.538,13.704-8.525,20.558  l0.032,17.352c0.015,7.811,6.381,14.164,14.19,14.165c0.005,0,0.023,0,0.028,0l98.825-0.185c7.806-0.015,14.144-6.378,14.13-14.184  L271.911,344.002z M159.789,360.734l-0.031-16.523c-0.005-2.598,1.456-6.867,4.729-10.549c1.902-2.139,5.95-5.73,11.69-5.741  l2.823-0.005c7.5,10.034,17.976,15.704,29.322,15.704c11.316-0.021,21.787-5.732,29.263-15.815l2.85-0.005  c10.029,0,16.444,10.657,16.454,16.229l0.031,16.523L159.789,360.734z" data-original="#000000" class="" style="fill:#000000" data-old_color="#135AC6"/></g> </svg>
