<svg id="Capa_1" enable-background="new 0 0 512 512" height="512" viewBox="0 0 512 512" width="512" xmlns="http://www.w3.org/2000/svg"><g><path d="m381.307 50.828h-250.614c-72.18 0-130.693 58.513-130.693 130.692v59c0 72.18 58.513 130.693 130.693 130.693h192.194c23.265 0 44.241 14.006 53.159 35.493l21.674 52.224c1.24 2.989 5.474 2.989 6.715 0l26.787-64.543c9.444-22.756 23.701-43.11 41.338-60.314 24.331-23.733 39.44-56.877 39.44-93.553v-59c0-72.179-58.513-130.692-130.693-130.692z" fill="#f6e266"/><path d="m381.307 50.828h-30.375c72.18 0 130.693 58.513 130.693 130.693v59c0 36.676-15.109 69.82-39.441 93.554-17.637 17.203-31.894 37.558-41.338 60.314l-14.956 36.037 11.83 28.505c1.24 2.989 5.474 2.989 6.715 0l26.787-64.543c9.444-22.756 23.701-43.11 41.338-60.314 24.331-23.734 39.44-56.878 39.44-93.554v-59c0-72.179-58.513-130.692-130.693-130.692z" fill="#f1d333"/><g fill="#454045"><path d="m64.566 110.353v.584c0 7.381 5.984 13.365 13.365 13.365 3.365 0 6.31 2.262 7.177 5.514l3.351 12.564c.595 2.229 3.574 2.698 4.8.743 6.678-10.643 10.607-21.705 10.124-33.44-.306-7.437-6.494-13.28-13.938-13.28h-10.93c-7.704.001-13.949 6.246-13.949 13.95z"/><path d="m126.491 110.353v.584c0 7.381 5.984 13.365 13.365 13.365 3.365 0 6.31 2.262 7.177 5.514l3.351 12.564c.595 2.229 3.574 2.698 4.8.743 6.678-10.643 10.607-21.705 10.124-33.44-.306-7.437-6.494-13.28-13.938-13.28h-10.931c-7.702.001-13.948 6.246-13.948 13.95z"/></g><g fill="#454045"><path d="m346.651 291.636v.584c0 7.381 5.984 13.365 13.365 13.365 3.365 0 6.31 2.262 7.177 5.514l3.351 12.564c.595 2.229 3.574 2.698 4.8.743 6.678-10.643 10.607-21.705 10.124-33.44-.306-7.437-6.494-13.28-13.938-13.28h-10.93c-7.704.001-13.949 6.246-13.949 13.95z"/><path d="m408.576 291.636v.584c0 7.381 5.984 13.365 13.365 13.365 3.365 0 6.31 2.262 7.177 5.514l3.351 12.564c.595 2.229 3.574 2.698 4.8.743 6.678-10.643 10.607-21.705 10.124-33.44-.306-7.437-6.494-13.28-13.938-13.28h-10.931c-7.702.001-13.948 6.246-13.948 13.95z"/></g><g><g><path d="m417.104 143.411h-220.788c-4.267 0-7.726-3.459-7.726-7.726s3.459-7.726 7.726-7.726h220.789c4.268 0 7.726 3.459 7.726 7.726s-3.459 7.726-7.727 7.726z" fill="#454045"/></g><g><path d="m417.104 180.802h-328.647c-4.267 0-7.726-3.459-7.726-7.726s3.459-7.726 7.726-7.726h328.647c4.268 0 7.726 3.459 7.726 7.726s-3.458 7.726-7.726 7.726z" fill="#454045"/></g><g><path d="m417.104 218.193h-328.647c-4.267 0-7.726-3.459-7.726-7.726s3.459-7.726 7.726-7.726h328.647c4.268 0 7.726 3.459 7.726 7.726.001 4.267-3.458 7.726-7.726 7.726z" fill="#454045"/></g><g><path d="m417.104 255.584h-328.647c-4.267 0-7.726-3.459-7.726-7.726s3.459-7.726 7.726-7.726h328.647c4.268 0 7.726 3.459 7.726 7.726s-3.458 7.726-7.726 7.726z" fill="#454045"/></g><g><path d="m311.025 292.975h-222.568c-4.267 0-7.726-3.459-7.726-7.726s3.459-7.726 7.726-7.726h222.567c4.268 0 7.726 3.459 7.726 7.726s-3.458 7.726-7.725 7.726z" fill="#454045"/></g></g></g></svg>