<?xml version="1.0" encoding="iso-8859-1"?>
<!-- Generator: Adobe Illustrator 19.0.0, SVG Export Plug-In . SVG Version: 6.00 Build 0)  -->
<svg version="1.1" id="Layer_1" xmlns="http://www.w3.org/2000/svg" xmlns:xlink="http://www.w3.org/1999/xlink" x="0px" y="0px"
	 viewBox="0 0 512 512" style="enable-background:new 0 0 512 512;" xml:space="preserve">
<path style="fill:#415E72;" d="M476.455,320.504c-0.387-3.094-1.225-6.141-2.563-8.94c-0.666-1.398-1.416-2.75-2.268-4.03
	c-0.857-1.275-1.833-2.46-2.866-3.577c-1.047-1.106-2.16-2.135-3.338-3.077c-1.203-0.912-2.464-1.733-3.766-2.461
	c-3.814-2.132-8.087-3.256-12.277-3.392c-0.531-16.019-1.128-32.039-1.816-48.06l-1.246-26.52c-0.469-8.84-0.935-17.68-1.501-26.52
	c-0.566,8.84-1.032,17.68-1.501,26.52l-1.246,26.52c-0.759,17.68-1.422,35.36-1.989,53.04c-0.069,2.094,1.363,4.005,3.485,4.465
	l1.253,0.271c7.459,1.616,12.718,6.933,14.54,12.847c0.437,1.484,0.725,2.982,0.797,4.5c0.036,1.522-0.07,3.048-0.377,4.505
	c-0.331,1.456-0.852,2.854-1.51,4.195c-0.678,1.336-1.585,2.545-2.571,3.698c-2.046,2.247-4.689,3.985-7.719,4.967
	c-1.513,0.497-3.142,0.761-4.815,0.879c-1.664,0.064-3.376-0.051-5.095-0.419c-3.433-0.738-6.889-2.473-9.874-5.201
	c-2.981-2.732-5.432-6.469-6.977-11.104c-1.56,4.639-1.219,10.157,0.977,15.121c2.156,4.99,6.172,9.39,11.31,12.191
	c1.283,0.702,2.634,1.294,4.025,1.809c1.399,0.495,2.848,0.847,4.317,1.132c1.472,0.256,2.967,0.442,4.475,0.465
	c1.508,0.011,3.03-0.059,4.547-0.263c6.073-0.803,11.948-3.636,16.45-7.955c2.28-2.136,4.173-4.678,5.684-7.427
	c0.752-1.378,1.405-2.814,1.942-4.293c0.522-1.485,0.912-3.013,1.213-4.554c0.293-1.544,0.454-3.106,0.529-4.665
	C476.729,323.609,476.638,322.052,476.455,320.504z"/>
<rect x="439.784" y="172.235" style="fill:#CFDCE5;" width="10.074" height="113.066"/>
<g>
	<polygon style="fill:#FCD577;" points="186.611,77.963 171.634,85.575 165.903,74.292 146.997,37.062 128.091,74.292 
		122.36,85.575 107.383,77.963 109.252,74.292 146.997,0 186.387,77.538 186.398,77.538 	"/>
	<path style="fill:#FCD577;" d="M17.588,101.94v83.728h87.69c-0.101,0.504-0.146,1.019-0.146,1.545v297.681
		c0,4.645,3.75,8.395,8.395,8.395c4.634,0,8.395-3.75,8.395-8.395v-12.57c0.638-0.336,1.231-0.795,1.724-1.388l48.423-58.598v72.557
		c0,4.645,3.761,8.395,8.395,8.395c4.645,0,8.395-3.75,8.395-8.395V187.212c0-0.526-0.056-1.041-0.146-1.545h305.696V101.94
		C494.412,101.94,17.588,101.94,17.588,101.94z M34.379,168.877v-42.233l42.233,42.233H34.379z M126.267,221.901l39.01,47.214
		l-43.353,52.453V216.651L126.267,221.901z M121.924,455.455V345.4l45.479,55.028L121.924,455.455z M172.071,388.506l-45.479-55.028
		l45.479-55.028V388.506z M172.071,259.769l-31.297-37.868l-14.171-17.16l-2.955-3.571c-0.493-0.593-1.086-1.063-1.724-1.399
		v-12.559c0-0.526-0.056-1.041-0.157-1.545h50.449c-0.09,0.504-0.146,1.019-0.146,1.545V259.769z M219.957,165.25
		c-1.198,0.918-1.903,2.239-2.104,3.627H92.44L42.293,118.73h237.852l-56.763,43.868L219.957,165.25z M233.568,168.877
		l54.188-41.886l54.188,41.886H233.568z M295.357,118.73h113.525l-56.763,43.868L295.357,118.73z M362.305,168.877l56.763-43.879
		l56.763,43.879H362.305z M477.621,156.117l-48.379-37.386h48.379V156.117z"/>
</g>
<g>
	<path style="fill:#EAC36E;" d="M105.133,187.212c0-0.526,0.045-1.041,0.146-1.545h-25.79v-29.741l12.951,12.951h12.447"/>
	<path style="fill:#EAC36E;" d="M209.95,113.469v5.261H79.489v-16.79h128.737C209.345,105.589,209.95,109.462,209.95,113.469z"/>
	<path style="fill:#EAC36E;" d="M223.382,130.629v55.039h-34.666c0.09,0.504,0.146,1.019,0.146,1.545v34.689h-16.79v-34.689
		c0-0.526,0.056-1.041,0.146-1.545h-50.449c0.101,0.504,0.157,1.019,0.157,1.545v12.559c0.638,0.336,1.231,0.806,1.724,1.399
		l17.126,20.73h-14.507l-4.343-5.25v5.25h-16.79v-34.689c0-0.526,0.045-1.041,0.146-1.545H92.921V91.451h91.272
		c10.309,0,19.689,3.985,26.685,10.488c4.88,4.533,8.597,10.298,10.667,16.79C222.733,122.48,223.382,126.476,223.382,130.629z"/>
</g>
<g>
	<polygon style="fill:#FCD577;" points="122.36,85.575 107.383,77.963 109.252,74.292 128.091,74.292 	"/>
	<path style="fill:#FCD577;" d="M171.634,85.575l-5.731-11.283h4.858c5.552,0,10.835,1.153,15.626,3.246h0.011l0.213,0.425
		L171.634,85.575z"/>
</g>
<polyline style="fill:#415E72;" points="165.333,512 48.296,512 48.296,467.37 245.697,467.37 245.697,512 192.197,512 "/>
<path style="fill:#FF6F52;" d="M223.382,113.466v91.272H92.921V74.288h91.272C205.842,74.288,223.382,91.83,223.382,113.466z"/>
<path style="fill:#87DAF4;" d="M223.382,113.469v52.934h-77.247V74.292h38.058C205.842,74.292,223.382,91.832,223.382,113.469z"/>
<path style="fill:#4EBFED;" d="M209.95,119.435v46.968h-63.814V80.258h24.626C192.409,80.258,209.95,97.798,209.95,119.435z"/>
<g>
</g>
<g>
</g>
<g>
</g>
<g>
</g>
<g>
</g>
<g>
</g>
<g>
</g>
<g>
</g>
<g>
</g>
<g>
</g>
<g>
</g>
<g>
</g>
<g>
</g>
<g>
</g>
<g>
</g>
</svg>
